<mxfile host="app.diagrams.net" modified="2023-08-23T03:44:58.524Z" agent="Mozilla/5.0 (Windows NT 10.0; Win64; x64) AppleWebKit/537.36 (KHTML, like Gecko) Chrome/115.0.0.0 Safari/537.36 Edg/115.0.1901.203" etag="xqXUJnrD3aT4kC11qJEv" version="21.6.8" type="github">
  <diagram name="第 1 页" id="PHkz1JhqlvaYr9xa9Y-j">
    <mxGraphModel dx="1221" dy="775" grid="1" gridSize="10" guides="1" tooltips="1" connect="1" arrows="1" fold="1" page="1" pageScale="1" pageWidth="827" pageHeight="1169" math="0" shadow="0">
      <root>
        <mxCell id="0" />
        <mxCell id="1" parent="0" />
        <mxCell id="OwmRQ7TiCN_tD85hc4C--24" style="edgeStyle=orthogonalEdgeStyle;rounded=0;orthogonalLoop=1;jettySize=auto;html=1;entryX=0.5;entryY=0;entryDx=0;entryDy=0;startArrow=classic;startFill=1;dashed=1;" edge="1" parent="1" source="OwmRQ7TiCN_tD85hc4C--2" target="OwmRQ7TiCN_tD85hc4C--3">
          <mxGeometry relative="1" as="geometry" />
        </mxCell>
        <mxCell id="OwmRQ7TiCN_tD85hc4C--25" value="通过元数据类型关联" style="edgeLabel;html=1;align=center;verticalAlign=middle;resizable=0;points=[];" vertex="1" connectable="0" parent="OwmRQ7TiCN_tD85hc4C--24">
          <mxGeometry x="-0.0012" relative="1" as="geometry">
            <mxPoint as="offset" />
          </mxGeometry>
        </mxCell>
        <mxCell id="OwmRQ7TiCN_tD85hc4C--2" value="&lt;p style=&quot;margin:0px;margin-top:4px;text-align:center;&quot;&gt;&lt;b&gt;core_dm_metatype&lt;/b&gt;&lt;/p&gt;&lt;hr size=&quot;1&quot;&gt;&lt;div style=&quot;text-align: center; height: 2px;&quot;&gt;元数据标准类型&lt;/div&gt;" style="verticalAlign=top;align=left;overflow=fill;fontSize=12;fontFamily=Helvetica;html=1;whiteSpace=wrap;fillColor=#dae8fc;strokeColor=#6c8ebf;" vertex="1" parent="1">
          <mxGeometry x="280" y="100" width="140" height="50" as="geometry" />
        </mxCell>
        <mxCell id="OwmRQ7TiCN_tD85hc4C--28" style="edgeStyle=orthogonalEdgeStyle;rounded=0;orthogonalLoop=1;jettySize=auto;html=1;entryX=0.5;entryY=0;entryDx=0;entryDy=0;startArrow=classic;startFill=1;dashed=1;" edge="1" parent="1" source="OwmRQ7TiCN_tD85hc4C--3" target="OwmRQ7TiCN_tD85hc4C--26">
          <mxGeometry relative="1" as="geometry" />
        </mxCell>
        <mxCell id="OwmRQ7TiCN_tD85hc4C--29" value="通过元数据字段ID关联" style="edgeLabel;html=1;align=center;verticalAlign=middle;resizable=0;points=[];" vertex="1" connectable="0" parent="OwmRQ7TiCN_tD85hc4C--28">
          <mxGeometry x="0.0367" y="2" relative="1" as="geometry">
            <mxPoint as="offset" />
          </mxGeometry>
        </mxCell>
        <mxCell id="OwmRQ7TiCN_tD85hc4C--3" value="&lt;p style=&quot;margin:0px;margin-top:4px;text-align:center;&quot;&gt;&lt;b&gt;core_dm_metafieldinfo&lt;/b&gt;&lt;/p&gt;&lt;hr size=&quot;1&quot;&gt;&lt;div style=&quot;text-align: center; height: 2px;&quot;&gt;元数据字段&lt;/div&gt;" style="verticalAlign=top;align=left;overflow=fill;fontSize=12;fontFamily=Helvetica;html=1;whiteSpace=wrap;fillColor=#dae8fc;strokeColor=#6c8ebf;" vertex="1" parent="1">
          <mxGeometry x="280" y="320" width="140" height="50" as="geometry" />
        </mxCell>
        <mxCell id="OwmRQ7TiCN_tD85hc4C--13" style="edgeStyle=orthogonalEdgeStyle;rounded=0;orthogonalLoop=1;jettySize=auto;html=1;entryX=1;entryY=0.5;entryDx=0;entryDy=0;" edge="1" parent="1" source="OwmRQ7TiCN_tD85hc4C--4" target="OwmRQ7TiCN_tD85hc4C--2">
          <mxGeometry relative="1" as="geometry">
            <Array as="points">
              <mxPoint x="480" y="233" />
              <mxPoint x="480" y="125" />
            </Array>
          </mxGeometry>
        </mxCell>
        <mxCell id="OwmRQ7TiCN_tD85hc4C--20" style="edgeStyle=orthogonalEdgeStyle;rounded=0;orthogonalLoop=1;jettySize=auto;html=1;entryX=1;entryY=0.5;entryDx=0;entryDy=0;" edge="1" parent="1" source="OwmRQ7TiCN_tD85hc4C--4" target="OwmRQ7TiCN_tD85hc4C--3">
          <mxGeometry relative="1" as="geometry">
            <Array as="points">
              <mxPoint x="480" y="233" />
              <mxPoint x="480" y="345" />
            </Array>
          </mxGeometry>
        </mxCell>
        <mxCell id="OwmRQ7TiCN_tD85hc4C--31" value="" style="edgeStyle=orthogonalEdgeStyle;rounded=0;orthogonalLoop=1;jettySize=auto;html=1;" edge="1" parent="1" source="OwmRQ7TiCN_tD85hc4C--4" target="OwmRQ7TiCN_tD85hc4C--30">
          <mxGeometry relative="1" as="geometry" />
        </mxCell>
        <mxCell id="OwmRQ7TiCN_tD85hc4C--4" value="导入数据元数据标准" style="rounded=1;whiteSpace=wrap;html=1;" vertex="1" parent="1">
          <mxGeometry x="650" y="208" width="120" height="50" as="geometry" />
        </mxCell>
        <mxCell id="OwmRQ7TiCN_tD85hc4C--7" style="edgeStyle=orthogonalEdgeStyle;rounded=0;orthogonalLoop=1;jettySize=auto;html=1;entryX=0.5;entryY=0;entryDx=0;entryDy=0;entryPerimeter=0;" edge="1" parent="1" source="OwmRQ7TiCN_tD85hc4C--5" target="OwmRQ7TiCN_tD85hc4C--6">
          <mxGeometry relative="1" as="geometry" />
        </mxCell>
        <mxCell id="OwmRQ7TiCN_tD85hc4C--5" value="平台" style="strokeWidth=2;html=1;shape=mxgraph.flowchart.start_1;whiteSpace=wrap;" vertex="1" parent="1">
          <mxGeometry x="50" y="20" width="100" height="50" as="geometry" />
        </mxCell>
        <mxCell id="OwmRQ7TiCN_tD85hc4C--16" style="edgeStyle=orthogonalEdgeStyle;rounded=0;orthogonalLoop=1;jettySize=auto;html=1;entryX=0;entryY=0.5;entryDx=0;entryDy=0;" edge="1" parent="1" source="OwmRQ7TiCN_tD85hc4C--6" target="OwmRQ7TiCN_tD85hc4C--2">
          <mxGeometry relative="1" as="geometry" />
        </mxCell>
        <mxCell id="OwmRQ7TiCN_tD85hc4C--17" style="edgeStyle=orthogonalEdgeStyle;rounded=0;orthogonalLoop=1;jettySize=auto;html=1;entryX=0;entryY=0.5;entryDx=0;entryDy=0;" edge="1" parent="1" source="OwmRQ7TiCN_tD85hc4C--6" target="OwmRQ7TiCN_tD85hc4C--3">
          <mxGeometry relative="1" as="geometry" />
        </mxCell>
        <mxCell id="OwmRQ7TiCN_tD85hc4C--23" style="edgeStyle=orthogonalEdgeStyle;rounded=0;orthogonalLoop=1;jettySize=auto;html=1;entryX=0.5;entryY=0;entryDx=0;entryDy=0;entryPerimeter=0;" edge="1" parent="1" source="OwmRQ7TiCN_tD85hc4C--6" target="OwmRQ7TiCN_tD85hc4C--21">
          <mxGeometry relative="1" as="geometry" />
        </mxCell>
        <mxCell id="OwmRQ7TiCN_tD85hc4C--6" value="判断是否已初始化平台资源元数据标准" style="html=1;whiteSpace=wrap;aspect=fixed;shape=isoRectangle;" vertex="1" parent="1">
          <mxGeometry x="45" y="200" width="110" height="66" as="geometry" />
        </mxCell>
        <mxCell id="OwmRQ7TiCN_tD85hc4C--11" style="edgeStyle=orthogonalEdgeStyle;rounded=0;orthogonalLoop=1;jettySize=auto;html=1;entryX=0.5;entryY=0;entryDx=0;entryDy=0;" edge="1" parent="1" source="OwmRQ7TiCN_tD85hc4C--9" target="OwmRQ7TiCN_tD85hc4C--4">
          <mxGeometry relative="1" as="geometry" />
        </mxCell>
        <mxCell id="OwmRQ7TiCN_tD85hc4C--9" value="库管" style="strokeWidth=2;html=1;shape=mxgraph.flowchart.start_1;whiteSpace=wrap;" vertex="1" parent="1">
          <mxGeometry x="660" y="20" width="100" height="50" as="geometry" />
        </mxCell>
        <mxCell id="OwmRQ7TiCN_tD85hc4C--19" value="否" style="text;html=1;strokeColor=none;fillColor=none;align=center;verticalAlign=middle;whiteSpace=wrap;rounded=0;" vertex="1" parent="1">
          <mxGeometry x="155" y="200" width="60" height="30" as="geometry" />
        </mxCell>
        <mxCell id="OwmRQ7TiCN_tD85hc4C--27" style="edgeStyle=orthogonalEdgeStyle;rounded=0;orthogonalLoop=1;jettySize=auto;html=1;entryX=0;entryY=0.5;entryDx=0;entryDy=0;" edge="1" parent="1" source="OwmRQ7TiCN_tD85hc4C--21" target="OwmRQ7TiCN_tD85hc4C--26">
          <mxGeometry relative="1" as="geometry" />
        </mxCell>
        <mxCell id="OwmRQ7TiCN_tD85hc4C--49" value="" style="edgeStyle=orthogonalEdgeStyle;rounded=0;orthogonalLoop=1;jettySize=auto;html=1;" edge="1" parent="1" source="OwmRQ7TiCN_tD85hc4C--21" target="OwmRQ7TiCN_tD85hc4C--48">
          <mxGeometry relative="1" as="geometry" />
        </mxCell>
        <mxCell id="OwmRQ7TiCN_tD85hc4C--21" value="判断是否已导入库管数据元数据标准" style="html=1;whiteSpace=wrap;aspect=fixed;shape=isoRectangle;" vertex="1" parent="1">
          <mxGeometry x="45" y="466" width="110" height="66" as="geometry" />
        </mxCell>
        <mxCell id="OwmRQ7TiCN_tD85hc4C--26" value="&lt;p style=&quot;margin:0px;margin-top:4px;text-align:center;&quot;&gt;&lt;b&gt;mds_dm_fieldmap&lt;/b&gt;&lt;/p&gt;&lt;hr size=&quot;1&quot;&gt;&lt;div style=&quot;text-align: center; height: 2px;&quot;&gt;平台资源元数据-库管数据元数据映射&lt;/div&gt;" style="verticalAlign=top;align=left;overflow=fill;fontSize=12;fontFamily=Helvetica;html=1;whiteSpace=wrap;fillColor=#ffcd28;gradientColor=#ffa500;strokeColor=#d79b00;" vertex="1" parent="1">
          <mxGeometry x="280" y="468" width="140" height="62" as="geometry" />
        </mxCell>
        <mxCell id="OwmRQ7TiCN_tD85hc4C--37" style="edgeStyle=orthogonalEdgeStyle;rounded=0;orthogonalLoop=1;jettySize=auto;html=1;" edge="1" parent="1" source="OwmRQ7TiCN_tD85hc4C--30" target="OwmRQ7TiCN_tD85hc4C--33">
          <mxGeometry relative="1" as="geometry" />
        </mxCell>
        <mxCell id="OwmRQ7TiCN_tD85hc4C--63" value="数据与数据元数据关联" style="edgeLabel;html=1;align=center;verticalAlign=middle;resizable=0;points=[];" vertex="1" connectable="0" parent="OwmRQ7TiCN_tD85hc4C--37">
          <mxGeometry x="0.4384" y="-4" relative="1" as="geometry">
            <mxPoint y="1" as="offset" />
          </mxGeometry>
        </mxCell>
        <mxCell id="OwmRQ7TiCN_tD85hc4C--69" value="" style="edgeStyle=orthogonalEdgeStyle;rounded=0;orthogonalLoop=1;jettySize=auto;html=1;" edge="1" parent="1" source="OwmRQ7TiCN_tD85hc4C--30" target="OwmRQ7TiCN_tD85hc4C--68">
          <mxGeometry relative="1" as="geometry" />
        </mxCell>
        <mxCell id="OwmRQ7TiCN_tD85hc4C--30" value="库管数据关联数据元数据标准" style="rounded=1;whiteSpace=wrap;html=1;" vertex="1" parent="1">
          <mxGeometry x="650" y="310" width="120" height="50" as="geometry" />
        </mxCell>
        <mxCell id="OwmRQ7TiCN_tD85hc4C--33" value="&lt;p style=&quot;margin:0px;margin-top:4px;text-align:center;&quot;&gt;&lt;b&gt;core_dm_metadatadatarel&lt;/b&gt;&lt;/p&gt;&lt;hr size=&quot;1&quot;&gt;&lt;div style=&quot;text-align: center; height: 2px;&quot;&gt;元数据-数据关联&lt;/div&gt;" style="verticalAlign=top;align=left;overflow=fill;fontSize=12;fontFamily=Helvetica;html=1;whiteSpace=wrap;fillColor=#dae8fc;strokeColor=#6c8ebf;" vertex="1" parent="1">
          <mxGeometry x="480" y="416" width="160" height="50" as="geometry" />
        </mxCell>
        <mxCell id="OwmRQ7TiCN_tD85hc4C--40" style="edgeStyle=orthogonalEdgeStyle;rounded=0;orthogonalLoop=1;jettySize=auto;html=1;entryX=0.5;entryY=0;entryDx=0;entryDy=0;" edge="1" parent="1" source="OwmRQ7TiCN_tD85hc4C--35" target="OwmRQ7TiCN_tD85hc4C--38">
          <mxGeometry relative="1" as="geometry" />
        </mxCell>
        <mxCell id="OwmRQ7TiCN_tD85hc4C--35" value="发布服务到平台" style="rounded=1;whiteSpace=wrap;html=1;" vertex="1" parent="1">
          <mxGeometry x="650" y="500" width="120" height="50" as="geometry" />
        </mxCell>
        <mxCell id="OwmRQ7TiCN_tD85hc4C--41" style="edgeStyle=orthogonalEdgeStyle;rounded=0;orthogonalLoop=1;jettySize=auto;html=1;entryX=0.5;entryY=1;entryDx=0;entryDy=0;" edge="1" parent="1" source="OwmRQ7TiCN_tD85hc4C--38" target="OwmRQ7TiCN_tD85hc4C--33">
          <mxGeometry relative="1" as="geometry" />
        </mxCell>
        <mxCell id="OwmRQ7TiCN_tD85hc4C--62" value="资源与资源元数据关联" style="edgeLabel;html=1;align=center;verticalAlign=middle;resizable=0;points=[];" vertex="1" connectable="0" parent="OwmRQ7TiCN_tD85hc4C--41">
          <mxGeometry x="0.0932" y="4" relative="1" as="geometry">
            <mxPoint x="24" y="1" as="offset" />
          </mxGeometry>
        </mxCell>
        <mxCell id="OwmRQ7TiCN_tD85hc4C--45" style="edgeStyle=orthogonalEdgeStyle;rounded=0;orthogonalLoop=1;jettySize=auto;html=1;entryX=0.5;entryY=0;entryDx=0;entryDy=0;entryPerimeter=0;" edge="1" parent="1" source="OwmRQ7TiCN_tD85hc4C--38" target="OwmRQ7TiCN_tD85hc4C--43">
          <mxGeometry relative="1" as="geometry">
            <Array as="points">
              <mxPoint x="710" y="770" />
              <mxPoint x="178" y="770" />
            </Array>
          </mxGeometry>
        </mxCell>
        <mxCell id="OwmRQ7TiCN_tD85hc4C--46" style="edgeStyle=orthogonalEdgeStyle;rounded=0;orthogonalLoop=1;jettySize=auto;html=1;entryX=0.5;entryY=0;entryDx=0;entryDy=0;" edge="1" parent="1" source="OwmRQ7TiCN_tD85hc4C--38" target="OwmRQ7TiCN_tD85hc4C--44">
          <mxGeometry relative="1" as="geometry">
            <Array as="points">
              <mxPoint x="710" y="770" />
              <mxPoint x="414" y="770" />
            </Array>
          </mxGeometry>
        </mxCell>
        <mxCell id="OwmRQ7TiCN_tD85hc4C--47" style="edgeStyle=orthogonalEdgeStyle;rounded=0;orthogonalLoop=1;jettySize=auto;html=1;entryX=0.5;entryY=0;entryDx=0;entryDy=0;entryPerimeter=0;" edge="1" parent="1" source="OwmRQ7TiCN_tD85hc4C--38" target="OwmRQ7TiCN_tD85hc4C--42">
          <mxGeometry relative="1" as="geometry">
            <Array as="points">
              <mxPoint x="710" y="770" />
              <mxPoint x="635" y="770" />
            </Array>
          </mxGeometry>
        </mxCell>
        <mxCell id="OwmRQ7TiCN_tD85hc4C--53" style="edgeStyle=orthogonalEdgeStyle;rounded=0;orthogonalLoop=1;jettySize=auto;html=1;entryX=1;entryY=0.5;entryDx=0;entryDy=0;dashed=1;" edge="1" parent="1" target="OwmRQ7TiCN_tD85hc4C--26">
          <mxGeometry relative="1" as="geometry">
            <mxPoint x="710" y="670" as="sourcePoint" />
            <Array as="points">
              <mxPoint x="710" y="680" />
              <mxPoint x="510" y="680" />
              <mxPoint x="510" y="499" />
            </Array>
          </mxGeometry>
        </mxCell>
        <mxCell id="OwmRQ7TiCN_tD85hc4C--54" value="读取元数据字段映射关系" style="edgeLabel;html=1;align=center;verticalAlign=middle;resizable=0;points=[];" vertex="1" connectable="0" parent="OwmRQ7TiCN_tD85hc4C--53">
          <mxGeometry x="0.0021" y="3" relative="1" as="geometry">
            <mxPoint as="offset" />
          </mxGeometry>
        </mxCell>
        <mxCell id="OwmRQ7TiCN_tD85hc4C--57" style="edgeStyle=orthogonalEdgeStyle;rounded=0;orthogonalLoop=1;jettySize=auto;html=1;entryX=1;entryY=0.5;entryDx=0;entryDy=0;" edge="1" parent="1" source="OwmRQ7TiCN_tD85hc4C--38" target="OwmRQ7TiCN_tD85hc4C--56">
          <mxGeometry relative="1" as="geometry">
            <Array as="points">
              <mxPoint x="710" y="705" />
            </Array>
          </mxGeometry>
        </mxCell>
        <mxCell id="OwmRQ7TiCN_tD85hc4C--59" value="读取数据元数据字段值并同步到平台资源元数据字段值" style="edgeLabel;html=1;align=center;verticalAlign=middle;resizable=0;points=[];" vertex="1" connectable="0" parent="OwmRQ7TiCN_tD85hc4C--57">
          <mxGeometry x="0.1869" y="1" relative="1" as="geometry">
            <mxPoint as="offset" />
          </mxGeometry>
        </mxCell>
        <mxCell id="OwmRQ7TiCN_tD85hc4C--38" value="平台侧：资源与平台元数据标准关联" style="rounded=1;whiteSpace=wrap;html=1;" vertex="1" parent="1">
          <mxGeometry x="650" y="590" width="120" height="50" as="geometry" />
        </mxCell>
        <mxCell id="OwmRQ7TiCN_tD85hc4C--42" value="ES sgs_resource_metadata" style="strokeWidth=2;html=1;shape=mxgraph.flowchart.document2;whiteSpace=wrap;size=0.25;fillColor=#e3c800;fontColor=#000000;strokeColor=#B09500;" vertex="1" parent="1">
          <mxGeometry x="560" y="826" width="150" height="60" as="geometry" />
        </mxCell>
        <mxCell id="OwmRQ7TiCN_tD85hc4C--43" value="Mongo&lt;br&gt;GEO_ESB_RESOURCEINFO&lt;br&gt;GEO_ESB_SERVICEINFO" style="strokeWidth=2;html=1;shape=mxgraph.flowchart.stored_data;whiteSpace=wrap;fillColor=#f5f5f5;fontColor=#333333;strokeColor=#666666;" vertex="1" parent="1">
          <mxGeometry x="80" y="826" width="195" height="60" as="geometry" />
        </mxCell>
        <mxCell id="OwmRQ7TiCN_tD85hc4C--44" value="&lt;p style=&quot;margin:0px;margin-top:4px;text-align:center;&quot;&gt;&lt;b&gt;mds_dm_resourcemetadata&lt;br&gt;mds_dm_servicemetadata&lt;/b&gt;&lt;/p&gt;&lt;hr size=&quot;1&quot;&gt;&lt;div style=&quot;text-align: center; height: 2px;&quot;&gt;核心库 - 资源/服务元数据&lt;/div&gt;" style="verticalAlign=top;align=left;overflow=fill;fontSize=12;fontFamily=Helvetica;html=1;whiteSpace=wrap;fillColor=#dae8fc;strokeColor=#6c8ebf;" vertex="1" parent="1">
          <mxGeometry x="314" y="825" width="200" height="62" as="geometry" />
        </mxCell>
        <mxCell id="OwmRQ7TiCN_tD85hc4C--50" style="edgeStyle=orthogonalEdgeStyle;rounded=0;orthogonalLoop=1;jettySize=auto;html=1;entryX=0.5;entryY=1;entryDx=0;entryDy=0;" edge="1" parent="1" source="OwmRQ7TiCN_tD85hc4C--48" target="OwmRQ7TiCN_tD85hc4C--26">
          <mxGeometry relative="1" as="geometry" />
        </mxCell>
        <mxCell id="OwmRQ7TiCN_tD85hc4C--51" value="修改资源元数据 - 数据元数据字段映射关系" style="edgeLabel;html=1;align=center;verticalAlign=middle;resizable=0;points=[];" vertex="1" connectable="0" parent="OwmRQ7TiCN_tD85hc4C--50">
          <mxGeometry x="-0.193" y="-2" relative="1" as="geometry">
            <mxPoint x="75" y="-47" as="offset" />
          </mxGeometry>
        </mxCell>
        <mxCell id="OwmRQ7TiCN_tD85hc4C--64" style="edgeStyle=orthogonalEdgeStyle;rounded=0;orthogonalLoop=1;jettySize=auto;html=1;entryX=0;entryY=0.75;entryDx=0;entryDy=0;exitX=1;exitY=0.25;exitDx=0;exitDy=0;" edge="1" parent="1" source="OwmRQ7TiCN_tD85hc4C--48" target="OwmRQ7TiCN_tD85hc4C--3">
          <mxGeometry relative="1" as="geometry">
            <Array as="points">
              <mxPoint x="180" y="613" />
              <mxPoint x="180" y="358" />
            </Array>
          </mxGeometry>
        </mxCell>
        <mxCell id="OwmRQ7TiCN_tD85hc4C--65" value="添加/删除字段" style="edgeLabel;html=1;align=center;verticalAlign=middle;resizable=0;points=[];" vertex="1" connectable="0" parent="OwmRQ7TiCN_tD85hc4C--64">
          <mxGeometry x="-0.603" relative="1" as="geometry">
            <mxPoint x="-10" as="offset" />
          </mxGeometry>
        </mxCell>
        <mxCell id="OwmRQ7TiCN_tD85hc4C--74" value="" style="edgeStyle=orthogonalEdgeStyle;rounded=0;orthogonalLoop=1;jettySize=auto;html=1;" edge="1" parent="1" source="OwmRQ7TiCN_tD85hc4C--48" target="OwmRQ7TiCN_tD85hc4C--72">
          <mxGeometry relative="1" as="geometry" />
        </mxCell>
        <mxCell id="OwmRQ7TiCN_tD85hc4C--48" value="资源元数据字段管理" style="rounded=1;whiteSpace=wrap;html=1;" vertex="1" parent="1">
          <mxGeometry x="40" y="600" width="120" height="50" as="geometry" />
        </mxCell>
        <mxCell id="OwmRQ7TiCN_tD85hc4C--66" style="edgeStyle=orthogonalEdgeStyle;rounded=0;orthogonalLoop=1;jettySize=auto;html=1;entryX=0.25;entryY=1;entryDx=0;entryDy=0;dashed=1;startArrow=classic;startFill=1;" edge="1" parent="1" source="OwmRQ7TiCN_tD85hc4C--56" target="OwmRQ7TiCN_tD85hc4C--3">
          <mxGeometry relative="1" as="geometry">
            <Array as="points">
              <mxPoint x="220" y="400" />
              <mxPoint x="315" y="400" />
            </Array>
          </mxGeometry>
        </mxCell>
        <mxCell id="OwmRQ7TiCN_tD85hc4C--56" value="&lt;p style=&quot;margin:0px;margin-top:4px;text-align:center;&quot;&gt;&lt;b&gt;core_dm_metainforel&lt;/b&gt;&lt;/p&gt;&lt;hr size=&quot;1&quot;&gt;&lt;div style=&quot;text-align: center; height: 2px;&quot;&gt;元数据字段值&lt;/div&gt;" style="verticalAlign=top;align=left;overflow=fill;fontSize=12;fontFamily=Helvetica;html=1;whiteSpace=wrap;fillColor=#dae8fc;strokeColor=#6c8ebf;" vertex="1" parent="1">
          <mxGeometry x="190" y="680" width="140" height="50" as="geometry" />
        </mxCell>
        <mxCell id="OwmRQ7TiCN_tD85hc4C--67" value="&lt;p style=&quot;margin:0px;margin-top:4px;text-align:center;&quot;&gt;metadata_部门编码&lt;/p&gt;&lt;hr size=&quot;1&quot;&gt;&lt;div style=&quot;text-align: center; height: 2px;&quot;&gt;sgs_metadata(元数据范围数据源)&lt;/div&gt;" style="verticalAlign=top;align=left;overflow=fill;fontSize=12;fontFamily=Helvetica;html=1;whiteSpace=wrap;fillColor=#dae8fc;strokeColor=#6c8ebf;" vertex="1" parent="1">
          <mxGeometry x="740" y="826" width="200" height="62" as="geometry" />
        </mxCell>
        <mxCell id="OwmRQ7TiCN_tD85hc4C--70" value="" style="edgeStyle=orthogonalEdgeStyle;rounded=0;orthogonalLoop=1;jettySize=auto;html=1;" edge="1" parent="1" source="OwmRQ7TiCN_tD85hc4C--68" target="OwmRQ7TiCN_tD85hc4C--35">
          <mxGeometry relative="1" as="geometry" />
        </mxCell>
        <mxCell id="OwmRQ7TiCN_tD85hc4C--71" style="edgeStyle=orthogonalEdgeStyle;rounded=0;orthogonalLoop=1;jettySize=auto;html=1;entryX=0.5;entryY=0;entryDx=0;entryDy=0;exitX=1;exitY=0.5;exitDx=0;exitDy=0;" edge="1" parent="1" source="OwmRQ7TiCN_tD85hc4C--68" target="OwmRQ7TiCN_tD85hc4C--67">
          <mxGeometry relative="1" as="geometry" />
        </mxCell>
        <mxCell id="OwmRQ7TiCN_tD85hc4C--68" value="提取元数据矢量面" style="rounded=1;whiteSpace=wrap;html=1;" vertex="1" parent="1">
          <mxGeometry x="650" y="410" width="120" height="50" as="geometry" />
        </mxCell>
        <mxCell id="OwmRQ7TiCN_tD85hc4C--73" style="edgeStyle=orthogonalEdgeStyle;rounded=0;orthogonalLoop=1;jettySize=auto;html=1;entryX=0.5;entryY=1;entryDx=0;entryDy=0;" edge="1" parent="1" source="OwmRQ7TiCN_tD85hc4C--72" target="OwmRQ7TiCN_tD85hc4C--67">
          <mxGeometry relative="1" as="geometry">
            <Array as="points">
              <mxPoint x="70" y="960" />
              <mxPoint x="840" y="960" />
            </Array>
          </mxGeometry>
        </mxCell>
        <mxCell id="OwmRQ7TiCN_tD85hc4C--75" value="空间检索" style="edgeLabel;html=1;align=center;verticalAlign=middle;resizable=0;points=[];" vertex="1" connectable="0" parent="OwmRQ7TiCN_tD85hc4C--73">
          <mxGeometry x="0.1203" relative="1" as="geometry">
            <mxPoint as="offset" />
          </mxGeometry>
        </mxCell>
        <mxCell id="OwmRQ7TiCN_tD85hc4C--77" value="条件匹配查询/全文模糊检索" style="edgeStyle=orthogonalEdgeStyle;rounded=0;orthogonalLoop=1;jettySize=auto;html=1;entryX=0.518;entryY=0.903;entryDx=0;entryDy=0;entryPerimeter=0;" edge="1" parent="1" source="OwmRQ7TiCN_tD85hc4C--72" target="OwmRQ7TiCN_tD85hc4C--42">
          <mxGeometry x="0.4044" relative="1" as="geometry">
            <Array as="points">
              <mxPoint x="70" y="930" />
              <mxPoint x="638" y="930" />
            </Array>
            <mxPoint as="offset" />
          </mxGeometry>
        </mxCell>
        <mxCell id="OwmRQ7TiCN_tD85hc4C--72" value="元数据检索" style="rounded=1;whiteSpace=wrap;html=1;" vertex="1" parent="1">
          <mxGeometry x="40" y="700" width="120" height="50" as="geometry" />
        </mxCell>
      </root>
    </mxGraphModel>
  </diagram>
</mxfile>
